<svg width="12" height="16" viewBox="0 0 12 16" fill="none" xmlns="http://www.w3.org/2000/svg">
<path d="M5.99996 0.5C3.08329 0.5 0.166626 5.775 0.166626 9.66667C0.166626 12.8917 2.77496 15.5 5.99996 15.5C9.22496 15.5 11.8333 12.8917 11.8333 9.66667C11.8333 5.775 8.91663 0.5 5.99996 0.5ZM5.99996 13.8333C3.69996 13.8333 1.83329 11.9667 1.83329 9.66667C1.83329 6.25833 4.39163 2.16667 5.99996 2.16667C7.60829 2.16667 10.1666 6.25833 10.1666 9.66667C10.1666 11.9667 8.29996 13.8333 5.99996 13.8333Z" fill="white"/>
<path d="M6.83329 11.3333C6.34996 11.3333 4.33329 11.2667 4.33329 8.83333C4.33329 8.375 3.95829 8 3.49996 8C3.04163 8 2.66663 8.375 2.66663 8.83333C2.66663 11.3333 4.32496 13 6.83329 13C7.29163 13 7.66663 12.625 7.66663 12.1667C7.66663 11.7083 7.29163 11.3333 6.83329 11.3333Z" fill="white"/>
</svg>
