 <svg
      role="img"
      width="800"
      height="575"
      aria-labelledby="loading-aria"
      viewBox="0 0 800 575"
      preserveAspectRatio="none"
    >
      <title id="loading-aria">Loading...</title>
      <rect
        x="0"
        y="0"
        width="100%"
        height="100%"
        clip-path="url(#clip-path)"
        style="fill: url('#fill')"
      ></rect>
      <defs>
        <clipPath id="clip-path">
          <rect x="537" y="9" rx="2" ry="2" width="140" height="10" />
          <rect x="14" y="30" rx="2" ry="2" width="667" height="11" />
          <rect x="12" y="58" rx="2" ry="2" width="211" height="211" />
          <rect x="240" y="57" rx="2" ry="2" width="211" height="211" />
          <rect x="467" y="56" rx="2" ry="2" width="211" height="211" />
          <rect x="12" y="283" rx="2" ry="2" width="211" height="211" />
          <rect x="240" y="281" rx="2" ry="2" width="211" height="211" />
          <rect x="468" y="279" rx="2" ry="2" width="211" height="211" />
          <circle cx="286" cy="536" r="12" />
          <circle cx="319" cy="535" r="12" />
          <circle cx="353" cy="535" r="12" />
          <rect x="378" y="524" rx="0" ry="0" width="52" height="24" />
          <rect x="210" y="523" rx="0" ry="0" width="52" height="24" />
          <circle cx="210" cy="535" r="12" />
          <circle cx="428" cy="536" r="12" />
        </clipPath>
        <linearGradient id="fill">
          <stop offset="0.599964" stop-color="#2E2F37" stop-opacity="1">
            <animate
              attributeName="offset"
              values="-2; -2; 1"
              keyTimes="0; 0.25; 1"
              dur="2s"
              repeatCount="indefinite"
            ></animate>
          </stop>
          <stop offset="1.59996" stop-color="#3C3D48" stop-opacity="1">
            <animate
              attributeName="offset"
              values="-1; -1; 2"
              keyTimes="0; 0.25; 1"
              dur="2s"
              repeatCount="indefinite"
            ></animate>
          </stop>
          <stop offset="2.59996" stop-color="#2E2F37" stop-opacity="1">
            <animate
              attributeName="offset"
              values="0; 0; 3"
              keyTimes="0; 0.25; 1"
              dur="2s"
              repeatCount="indefinite"
            ></animate>
          </stop>
        </linearGradient>
      </defs>
    </svg>